<svg xmlns="http://www.w3.org/2000/svg" xmlns:xlink="http://www.w3.org/1999/xlink" width="20px" height="19px" viewBox="0 0 20 19" version="1.1">
  <g id="Page-1" stroke="none" stroke-width="1" fill="none" fill-rule="evenodd">
    <g id="Group" transform="translate(-241.000000, -557.000000)" fill="#FFFFFF">
      <g id="step2" transform="translate(90.000000, 427.000000)">
        <g id="Group-7" transform="translate(44.000000, 112.000000)">
          <g id="Group-3" transform="translate(89.000000, 0.000000)">
            <path d="M29,26.5 L36.5,26.5 C37.0522847,26.5 37.5,26.9477153 37.5,27.5 C37.5,28.0522847 37.0522847,28.5 36.5,28.5 L29,28.5 L29,36 C29,36.5522847 28.5522847,37 28,37 C27.4477153,37 27,36.5522847 27,36 L27,28.5 L19.5,28.5 C18.9477153,28.5 18.5,28.0522847 18.5,27.5 C18.5,26.9477153 18.9477153,26.5 19.5,26.5 L27,26.5 L27,19 C27,18.4477153 27.4477153,18 28,18 C28.5522847,18 29,18.4477153 29,19 L29,26.5 Z" id="Combined-Shape"/>
          </g>
        </g>
      </g>
    </g>
  </g>
</svg>